<?xml version="1.0" encoding="iso-8859-1"?>
<!-- Generator: Adobe Illustrator 19.0.0, SVG Export Plug-In . SVG Version: 6.00 Build 0)  -->
<svg version="1.1" id="Layer_1" xmlns="http://www.w3.org/2000/svg" xmlns:xlink="http://www.w3.org/1999/xlink" x="0px" y="0px"
	 viewBox="0 0 195.453 195.453" style="enable-background:new 0 0 195.453 195.453;" xml:space="preserve">
<g>
	<g>
		<g>
			<path d="M155.92,91.215H96.331c1.958-7.435,8.952-28.964,26.408-39.574c1.639-0.998,2.162-3.135,1.164-4.774
				c-0.998-1.635-3.132-2.162-4.774-1.164C97.667,58.748,90.561,85.076,89.161,91.215H34.31c-1.92,0-3.475,1.554-3.475,3.475v24.322
				c0,1.92,1.554,3.475,3.475,3.475h7.245l6.219,69.8c0.159,1.791,1.663,3.166,3.461,3.166h87.76c1.798,0,3.302-1.374,3.461-3.166
				l6.219-69.8h7.245c1.92,0,3.475-1.554,3.475-3.475V94.689C159.394,92.768,157.841,91.215,155.92,91.215z M135.816,188.503H54.414
				l-5.884-66.017H141.7L135.816,188.503z M152.445,115.537h-6.949H44.734h-6.949V98.164h114.661V115.537z"/>
			<path d="M81.501,64.517c2.141,0.672,4.204,1.005,6.142,1.005c3.468,0,6.532-1.065,8.934-3.152
				c3.746-3.257,5.246-8.452,4.224-14.628c-0.923-5.568-3.838-11.404-8.211-16.436c-9.236-10.627-27.451-9.182-28.231-9.107
				c-1.5,0.129-2.745,1.215-3.084,2.681c-0.173,0.757-4.147,18.595,5.093,29.222C70.742,59.129,76.117,62.831,81.501,64.517z
				 M67.614,29.052c4.723,0.041,14.577,0.879,19.731,6.813c3.492,4.014,5.897,8.754,6.6,13.009c0.356,2.145,0.577,6.07-1.927,8.249
				c-2.504,2.178-6.362,1.408-8.439,0.763c-4.116-1.289-8.476-4.333-11.964-8.347C66.456,43.609,66.992,33.738,67.614,29.052z"/>
			<path d="M148.982,31.271c-4.791,0-8.686-3.895-8.686-8.686c0-4.791,3.895-8.686,8.686-8.686s8.686,3.895,8.686,8.686
				c0,1.92,1.554,3.475,3.475,3.475s3.475-1.554,3.475-3.475c0-8.027-6.102-14.583-13.898-15.46v-3.65
				c0-1.92-1.554-3.475-3.475-3.475c-1.92,0-3.475,1.554-3.475,3.475V7.91c-6.053,2.158-10.424,7.889-10.424,14.675
				c0,8.622,7.014,15.636,15.636,15.636c4.791,0,8.686,3.895,8.686,8.686c0,4.791-3.895,8.686-8.686,8.686s-8.686-3.895-8.686-8.686
				c0-1.92-1.554-3.475-3.475-3.475s-3.475,1.554-3.475,3.475c0,6.785,4.37,12.517,10.424,14.675v5.874
				c0,1.92,1.554,3.475,3.475,3.475c1.92,0,3.475-1.554,3.475-3.475v-5.089c7.796-0.877,13.898-7.433,13.898-15.46
				C164.617,38.285,157.604,31.271,148.982,31.271z"/>
		</g>
	</g>
</g>
<g>
</g>
<g>
</g>
<g>
</g>
<g>
</g>
<g>
</g>
<g>
</g>
<g>
</g>
<g>
</g>
<g>
</g>
<g>
</g>
<g>
</g>
<g>
</g>
<g>
</g>
<g>
</g>
<g>
</g>
</svg>
