<?xml version="1.0" encoding="iso-8859-1"?>
<!-- Generator: Adobe Illustrator 19.0.0, SVG Export Plug-In . SVG Version: 6.00 Build 0)  -->
<svg version="1.1" id="Layer_1" xmlns="http://www.w3.org/2000/svg" xmlns:xlink="http://www.w3.org/1999/xlink" x="0px" y="0px"
	 viewBox="0 0 512 512" style="enable-background:new 0 0 512 512;" xml:space="preserve">
<g>
	<g>
		<rect x="98.268" y="309.637" width="72.606" height="30.417"/>
	</g>
</g>
<g>
	<g>
		<path d="M384.933,309.64c-0.749-47.216-38.461-85.61-85.408-87.457l0.061-0.077h-3.6h-4.165
			c23.158-21.201,37.704-51.661,37.704-85.457V95.867h64.366V65.45h-64.366V51.656C329.524,23.173,306.352,0,277.869,0H149.432
			c-28.484,0-51.656,23.173-51.656,51.656V65.45v30.417v40.781c0,33.797,14.547,64.256,37.704,85.457h-4.165h-3.599l0.061,0.077
			c-47.42,1.866-85.427,41.019-85.427,88.889V512h200.704h30.417h196.18V309.64H384.933z M128.193,51.656
			c0-11.712,9.528-21.239,21.239-21.239h128.435c11.712,0,21.239,9.528,21.239,21.239V65.45H128.193V51.656z M128.193,136.648
			V95.867h170.914v40.781c0,47.121-38.336,85.457-85.457,85.457S128.193,183.769,128.193,136.648z M236.755,252.522l-23.105,29.217
			l-23.104-29.217H236.755z M243.053,309.639L243.053,309.639v171.944H72.767V311.07c0-32.284,26.264-58.548,58.548-58.548h20.454
			l61.883,78.256l61.883-78.256h20.452c31.805,0,57.768,25.493,58.532,57.116H243.053z M273.471,481.583V340.057h30.133v40.095
			h30.417v-40.095h44.661v40.095h30.417v-40.095h30.133v141.526H273.471z"/>
	</g>
</g>
<g>
</g>
<g>
</g>
<g>
</g>
<g>
</g>
<g>
</g>
<g>
</g>
<g>
</g>
<g>
</g>
<g>
</g>
<g>
</g>
<g>
</g>
<g>
</g>
<g>
</g>
<g>
</g>
<g>
</g>
</svg>
