<svg width="115.35" height="122.88" xmlns="http://www.w3.org/2000/svg">

 <g>
  <title>background</title>
  <rect fill="none" id="canvas_background" height="514" width="514" y="-1" x="-1"/>
 </g>
 <g>
  <title>Layer 1</title>
  <g stroke="null" id="svg_1">
   <path stroke="null" id="svg_2" d="m98.678981,11.238983c-0.335139,0 -0.60362,-0.188782 -0.60362,-0.421526s0.272184,-0.421526 0.60362,-0.421526l3.979078,0c0.335139,0 0.60362,0.188782 0.60362,0.421526s-0.270333,0.421526 -0.60362,0.421526l-3.979078,0l0,0l0,0zm6.634265,-1.22191c-0.177753,0 -0.329584,-0.106028 -0.329584,-0.235331c0,-0.124131 0.151831,-0.230159 0.329584,-0.230159l0.860992,0c0.007406,0 0.025922,0 0.033329,0c0.303662,0.005172 0.573994,0.046549 0.801741,0.147405c0.253669,0.112493 0.438828,0.283173 0.540666,0.536606c0,0.005172 0,0.011637 0.009258,0.018102l0.085173,0.235331l7.386012,0c0.185159,0 0.329584,0.106028 0.329584,0.230159c0,0.023274 -0.009258,0.046549 -0.016664,0.071116l-0.860992,2.423131c-0.033329,0.106028 -0.168495,0.177145 -0.320326,0.177145l0,0l-5.402954,0c0.118502,0.306447 0.237004,0.471955 0.396241,0.548243c0.194417,0.087926 0.531408,0.094391 1.097996,0.087926l0.007406,0l0,0l3.816137,0c0.185159,0 0.329584,0.106028 0.329584,0.230159c0,0.129303 -0.151831,0.230159 -0.329584,0.230159l-3.817989,0l0,0c-0.701754,0.005172 -1.131325,-0.006465 -1.477573,-0.165507c-0.355506,-0.165507 -0.540666,-0.447387 -0.725825,-0.960718l0,0l-1.131325,-2.990769c0,-0.006465 0,-0.006465 -0.007406,-0.011637c-0.049993,-0.129303 -0.135166,-0.218521 -0.253669,-0.26507c-0.118502,-0.053014 -0.277739,-0.076289 -0.46475,-0.076289c-0.009258,0 -0.016664,0 -0.025922,0l-0.85914,0l0,0l0,0zm7.774847,4.740234c0.448086,0 0.810999,0.253433 0.810999,0.566345s-0.362913,0.566345 -0.810999,0.566345s-0.810999,-0.253433 -0.810999,-0.566345s0.362913,-0.566345 0.810999,-0.566345l0,0l0,0zm-3.555062,0c0.448086,0 0.810999,0.253433 0.810999,0.566345s-0.362913,0.566345 -0.810999,0.566345c-0.448086,0 -0.810999,-0.253433 -0.810999,-0.566345s0.364764,-0.566345 0.810999,-0.566345l0,0l0,0zm-10.85405,-10.415325c-0.335139,0 -0.60362,-0.190075 -0.60362,-0.421526c0,-0.232745 0.272184,-0.421526 0.60362,-0.421526l9.354258,0c0.335139,0 0.60362,0.188782 0.60362,0.421526c0,0.232745 -0.270333,0.421526 -0.60362,0.421526l-9.354258,0l0,0l0,0zm-3.277323,-4.341982l15.855208,0c0.386983,0 0.738786,0.109907 0.990603,0.285759s0.409202,0.421526 0.409202,0.691769l0,7.75557l-1.203537,0l0,-7.751691c0,-0.037498 -0.022219,-0.072409 -0.057399,-0.09827c-0.037032,-0.024567 -0.087025,-0.040084 -0.140721,-0.040084l0,0l-15.853356,0c-0.053696,0 -0.103689,0.015516 -0.140721,0.040084s-0.055548,0.060772 -0.055548,0.09827l0,12.758288c0,0.037498 0.022219,0.072409 0.057399,0.09827s0.085173,0.040084 0.140721,0.040084l10.19303,0c0.112947,0.309033 0.240707,0.579276 0.412906,0.836588l-10.607788,0c-0.386983,0 -0.738786,-0.109907 -0.990603,-0.285759c-0.253669,-0.174559 -0.411054,-0.420233 -0.411054,-0.690476l0,-12.759581c0,-0.270242 0.157386,-0.51721 0.409202,-0.693062s0.605472,-0.285759 0.992455,-0.285759l0,0l0,0zm3.277323,7.790482c-0.335139,0 -0.60362,-0.188782 -0.60362,-0.421526s0.272184,-0.421526 0.60362,-0.421526l9.354258,0c0.335139,0 0.60362,0.188782 0.60362,0.421526s-0.270333,0.421526 -0.60362,0.421526l-9.354258,0l0,0l0,0z"/>
  </g>
 </g>
</svg>